<svg xmlns="http://www.w3.org/2000/svg" width="933.333" height="933.333" viewBox="0 0 700 700"><path d="M131.667 32.424c-10.97 0-19.849 8.878-19.849 19.849v79.394c0 10.97 8.876 19.848 19.849 19.848 10.97 0 19.848-8.877 19.848-19.848V52.273c0-10.97-8.877-19.849-19.848-19.849zm317.575 0c-10.972 0-19.848 8.88-19.848 19.849v79.394c0 10.97 8.879 19.848 19.848 19.848 10.971 0 19.849-8.877 19.849-19.848V52.273c0-10.971-8.879-19.849-19.849-19.849zM75.436 111.818c-23.763 0-43.012 19.538-43.012 43.651v349.367c0 24.035 19.248 43.649 43.012 43.649h279.567c17.63 68.483 79.802 119.09 153.785 119.09 87.689 0 158.788-71.095 158.788-158.787 0-73.983-50.608-136.156-119.091-153.785V155.47c0-24.113-19.23-43.65-42.992-43.65h-16.554v19.848c0 21.864-17.794 39.697-39.697 39.697-21.902 0-39.697-17.833-39.697-39.697v-19.849H171.364v19.849c0 21.864-17.795 39.697-39.697 39.697-21.903 0-39.697-17.833-39.697-39.697v-19.849H75.436zM72.12 230.91h436.667V350C421.098 350 350 421.099 350 508.788H75.436c-1.803 0-3.315-1.86-3.315-3.952V230.909zm39.697 39.697V350h79.394v-79.394h-79.394zm119.091 0V350h79.394v-79.394h-79.394zm119.091 0V350h79.394v-79.394H350zm-238.181 119.09v79.394h79.394v-79.394h-79.394zm119.091 0v79.394h79.394v-79.394h-79.394zm277.879 0c65.67 0 119.09 53.42 119.09 119.09 0 65.671-53.42 119.092-119.09 119.092s-119.091-53.42-119.091-119.091c0-65.67 53.42-119.091 119.09-119.091zm-19.849 39.697c-10.97 0-19.848 8.879-19.848 19.848v79.394c0 10.971 8.879 19.849 19.848 19.849h79.394c10.971 0 19.849-8.879 19.849-19.849 0-10.972-8.88-19.848-19.849-19.848h-59.545v-59.546c0-10.97-8.879-19.848-19.849-19.848z"/></svg>