<svg xmlns="http://www.w3.org/2000/svg" viewBox="0 0 512 512"><path d="M80 0c-8.843 0-16 7.156-16 16v64c0 8.843 7.155 16 16 16 8.843 0 16-7.156 16-16V16c0-8.843-7.156-16-16-16zm256 0c-8.845 0-16 7.157-16 16v64c0 8.844 7.157 16 16 16 8.844 0 16-7.156 16-16V16c0-8.844-7.157-16-16-16zM34.672 64C15.516 64 0 79.75 0 99.188v281.626C0 400.19 15.515 416 34.672 416h225.361c14.211 55.205 64.33 96 123.967 96 70.687 0 128-57.311 128-128 0-59.638-40.795-109.756-96-123.967V99.187C416 79.75 400.5 64 381.344 64H368v16c0 17.625-14.344 32-32 32s-32-14.375-32-32V64H112v16c0 17.625-14.344 32-32 32S48 97.625 48 80V64H34.672zM32 160h352v96c-70.687 0-128 57.313-128 128H34.672c-1.454 0-2.672-1.499-2.672-3.186V160zm32 32v64h64v-64H64zm96 0v64h64v-64h-64zm96 0v64h64v-64h-64zM64 288v64h64v-64H64zm96 0v64h64v-64h-64zm224 0c52.938 0 96 43.063 96 96 0 52.938-43.063 96-96 96-52.938 0-96-43.063-96-96s43.063-96 96-96zm-16 32c-8.844 0-16 7.157-16 16v64c0 8.844 7.157 16 16 16h64c8.844 0 16-7.157 16-16 0-8.845-7.157-16-16-16h-48v-48c0-8.844-7.157-16-16-16z" fill="#fff"/></svg>