<svg xmlns="http://www.w3.org/2000/svg" viewBox="0 0 512 512"><path d="M39.864 159.455h349.638V385.35H39.864z" fill="#fff"/><path d="M81.625 197.875V256h1.977v1.988h1.966v1.98h1.957v1.97h1.948v1.958h1.937v1.952h1.928v1.94h1.918v1.929h1.906v1.92h1.899v1.91h1.888v1.898h1.877v1.89h1.87v1.882h1.859v1.869h1.847v1.861h1.838v1.85h1.83v.266H81.625v58.125h.004v.006h.016v.013h.025v.026h.033v.035h.045v.045h.055v.054h.064v.065h.072v.074h.084v.084h.094v.094h.104v.103h.113v.116h.123v.123h.135v.134h.142v.145h.153v.152h.162v.164h.174v.174h.181v.184h.194v.193h.2v.203h.214v.213h.22v.225h.233v.232h.24v.242h.252v.254h.262v.264h.271v.271h.281v.284h.29v.293h.3v.302h.31v.313h.323v.322h.33v.332h.34v.342h.35v.353h.359v.362h.371v.373h.379v.38h.389v.393h.4v.403h.408v.41h.42v.422h.428v.431h.44v.442h.449v.45h.457v.464h.468v.47h.479v.48h.488v.493h.498v.5h.508v.512h.518v.521H96v.53h.537v.54h.547v.551h.557v.56h.566v.571h.578v.58h.586v.592h.598v.6h.605v.61h.615v.62h.627v.63h.637v.64h.645v.65h.656v.66h.666v.668h.674v.68h.685v.69h.696v.7h.705v.71h.715v.718h.724v.729h.735v.74h.744v.748h.754v.76h.765v.77h.774v.777h.783v.789h.795v.799h.802v.808h.813v.819h.824v.828l278.904-.528-5.39-91 6.236-6.236h-2.543l1.276-1.275h-2.52l1.264-1.264h-2.504l1.256-1.256h-2.465v-.016l1.228-1.228h-1.228v-1.236h-1.217v-1.225h-1.209v-1.215H386.3v-1.207h-1.188v-1.195h-1.177v-1.186h-1.17v-1.175h-1.159v-1.167h-1.148v-1.154h-1.139v-1.146h-1.129v-1.137h-1.119v-1.125h-1.11v-1.117h-1.097v-1.106h-1.09v-1.095h-1.08v-1.088h-1.07v-1.076h-1.059v-1.067h-1.05v-1.056h-1.041v-1.047h-1.03v-1.037h-1.02v-1.026h-1.01v-1.017h-1v-1.008h-.993v-.996h-.98v-.989h-.971v-.976h-.961v-.967h-.951v-.957h-.942v-.95h-.931v-.937h-.922v-.927h-.912v-.916h-.903v-.909h-.892v-.898h-.883v-.889h-.873v-.877h-.862v-.869h-.853v-.857h-.844v-.848h-.832v-.84h-.824v-.828h-.813v-.818h-.802v-.809h-.795v-.799h-.783v-.789h-.774v-.777h-.765v-.77h-.754v-.76h-.744v-.747h-.735v-.74h-.724v-.73h-.715v-.718h-.705v-.709h-.696v-.701h-.685v-.69h-.674v-.68h-.666v-.667h-.656v-.66h-.645v-.65h-.637v-.641h-.625v-.63h-.617v-.62h-.605v-.61h-.598v-.6h-.586v-.591h-.576v-.58h-.568v-.57h-.557v-.561h-.547v-.55h-.537v-.542h-.527v-.53h-.518v-.52h-.508v-.512h-.498v-.5h-.488v-.493h-.479v-.48h-.468v-.47h-.457v-.464h-.45v-.45h-.439v-.442h-.428v-.432h-.42v-.422h-.408v-.41h-.4v-.402h-.389v-.393h-.379v-.38h-.371v-.374h-.36v-.361h-.349v-.354h-.34v-.341h-.33v-.332h-.32v-.323h-.31v-.312h-.302v-.303h-.29v-.293h-.282v-.283h-.271v-.272h-.262v-.263h-.252v-.254h-.24v-.242h-.233v-.233h-.22v-.224h-.213v-.213h-.201v-.203h-.194v-.194h-.181v-.183h-.174v-.174h-.162v-.164h-.153v-.155h-.142v-.142h-.133v-.135h-.125v-.123h-.113v-.115h-.104v-.104h-.094v-.093h-.082v-.084h-.074v-.075h-.064v-.066h-.055V198h-.045v-.045h-.033v-.035h-.025v-.025h-.016v-.014h-.004v-.006H256v30.637h-.447v-1.84h-1.838v-1.85h-1.848v-1.86h-1.86v-1.87h-1.868v-1.88h-1.877v-1.892h-1.889v-1.898h-1.898v-1.91h-1.907v-1.92h-1.918v-1.93h-1.927v-1.94h-1.938v-1.948h-1.947v-1.961h-1.957v-1.97h-1.967v-1.978h-1.977v-1.99h-58.125v30.637h-.447v-1.84h-1.838v-1.85h-1.847v-1.86h-1.86v-1.87h-1.869v-1.88h-1.877v-1.892h-1.888v-1.898h-1.899v-1.91h-1.906v-1.92h-1.918v-1.93h-1.928v-1.94h-1.937v-1.95h-1.948v-1.96h-1.957v-1.968h-1.966v-1.98h-1.977v-1.989z" fill="#ddd"/><path d="M81.625 96.156V38.031c0-8.032 6.5-14.531 14.531-14.531 8.032 0 14.531 6.5 14.531 14.531v58.125c0 8.032-6.499 14.531-14.53 14.531-8.033 0-14.532-6.499-14.532-14.53zm247.031 14.532c8.032 0 14.531-6.5 14.531-14.532V38.031c0-8.032-6.499-14.531-14.53-14.531-8.033 0-14.532 6.5-14.532 14.531v58.125c0 8.032 6.5 14.531 14.531 14.531zM372.25 256C308.052 256 256 308.052 256 372.25c0 64.198 52.052 116.25 116.25 116.25 64.198 0 116.25-52.05 116.25-116.25 0-64.198-52.052-116.25-116.25-116.25z" fill="#0ca8a4"/><path d="M372.25 285.063c48.078 0 87.188 39.109 87.188 87.187 0 48.078-39.11 87.188-87.188 87.188s-87.188-39.11-87.188-87.188 39.11-87.188 87.188-87.188z" fill="#fff"/><path d="M357.719 314.125c-8.032 0-14.531 6.5-14.531 14.531v58.125c0 8.032 6.499 14.531 14.53 14.531h58.126c8.032 0 14.531-6.499 14.531-14.53 0-8.033-6.5-14.532-14.531-14.532H372.25v-43.594c0-8.032-6.5-14.531-14.531-14.531zM139.75 197.875H81.625V256h58.125v-58.125zM168.813 256h58.125v-58.125h-58.125V256zm0 87.188h58.125v-58.125h-58.125v58.125z" fill="#0ca8a4"/><path d="M52.563 369.356V168.813H372.25v94.375h29.063V113.583c0-17.654-14.078-31.958-31.475-31.958h-12.12v14.531c0 16.007-13.027 29.063-29.062 29.063-16.035 0-29.062-13.056-29.062-29.063V81.625H125.219v14.531c0 16.007-13.028 29.063-29.063 29.063-16.035 0-29.062-13.056-29.062-29.063V81.625H54.989c-17.397 0-31.489 14.304-31.489 31.958v255.773c0 17.596 14.092 31.956 31.49 31.956h217.55V372.25H54.99c-1.32 0-2.427-1.362-2.427-2.894z" fill="#0ca8a4"/><path d="M314.125 256v-58.125H256V256h58.125zm-232.5 87.188h58.125v-58.125H81.625v58.125z" fill="#0ca8a4"/></svg>