<svg xmlns="http://www.w3.org/2000/svg" viewBox="0 0 512 512"><path d="M256.025 0c-27.065 0-50.264 9.667-69.545 28.947-19.28 19.28-28.945 42.48-28.945 69.545v157.533c0 27.066 9.665 50.265 28.945 69.545s42.48 28.948 69.545 28.948c27.066 0 50.265-9.667 69.545-28.948 19.28-19.28 28.948-42.479 28.948-69.545V98.492c0-27.065-9.667-50.264-28.948-69.545C306.29 9.667 283.091 0 256.025 0zM98.44 196.932c-5.33 0-9.926 1.932-13.845 5.851-3.919 3.919-5.854 8.516-5.854 13.846v39.396c0 45.301 15.154 84.75 45.406 118.295 30.247 33.538 67.65 52.766 112.155 57.682V492.3c0 5.33 1.935 9.98 5.853 13.847C246.021 510.068 250.67 512 256 512s9.927-1.933 13.846-5.852c3.918-3.918 5.851-8.518 5.851-13.847V432c44.506-4.915 81.91-24.142 112.157-57.68 30.252-33.545 45.406-72.942 45.406-118.296V216.63c0-5.33-1.934-9.98-5.905-13.846-3.866-3.919-8.518-5.851-13.847-5.851-5.33 0-9.927 1.932-13.846 5.851-3.919 3.919-5.851 8.516-5.851 13.846v39.396c0 37.934-13.48 70.434-40.442 97.395-26.961 26.961-59.46 40.441-97.394 40.441-37.934 0-70.434-13.48-97.395-40.441-26.961-26.961-40.441-59.461-40.441-97.395V216.63c0-5.33-1.935-9.98-5.854-13.846-3.866-3.919-8.516-5.851-13.846-5.851z" fill="#0ca8a4"/></svg>